<?xml version="1.0" encoding="UTF-8"?>
<svg width="120px" height="227px" viewBox="0 0 120 227" version="1.1" xmlns="http://www.w3.org/2000/svg" xmlns:xlink="http://www.w3.org/1999/xlink">
    <!-- Generator: Sketch 46.2 (44496) - http://www.bohemiancoding.com/sketch -->
    <title>Group 15</title>
    <desc>Created with Sketch.</desc>
    <defs></defs>
    <g id="Page-1" stroke="none" stroke-width="1" fill="none" fill-rule="evenodd">
        <g id="1-panel_example_1-copy-3" transform="translate(-152.000000, -305.000000)">
            <g id="Group-15" transform="translate(152.000000, 305.000000)">
                <g id="Group-3-Copy">
                    <rect id="Rectangle-3" fill="#8439F6" x="0" y="0" width="120" height="227"></rect>
                    <g id="noun_1258010_cc" transform="translate(10.000000, 10.000000)" fill-rule="nonzero" fill="#010165">
                        <path d="M101,208 L101,0 L0,0 L0,208 L1.61858974,208 L101,208 Z M3.23717949,3.25355858 L97.7628205,3.25355858 L97.7628205,204.746441 L3.23717949,204.746441 L3.23717949,3.25355858 Z" id="Shape"></path>
                    </g>
                </g>
                <rect id="Rectangle-5" fill="#00FFFF" x="13" y="13" width="95" height="202"></rect>
                <g id="noun_922273_cc" transform="translate(18.000000, 17.000000)" fill-rule="nonzero" fill="#010165">
                    <path d="M83.9,94.5 C84,94.1 83.8,93.7 83.5,93.5 L81.5,92.1 L81.6,89.6 C81.6,89.2 81.4,88.9 81.1,88.7 C80.8,88.5 80.4,88.6 80,88.8 L78,90.2 L75.7,89.4 C75.3,89.3 74.9,89.4 74.7,89.6 C74.4,89.9 74.3,90.3 74.4,90.6 L75.2,92.9 L73.7,94.8 C73.5,95.1 73.4,95.5 73.6,95.9 C73.8,96.2 74.1,96.5 74.5,96.5 L77,96.5 L78.4,98.5 C78.6,98.8 78.9,98.9 79.2,98.9 C79.2,98.9 79.3,98.9 79.3,98.9 C79.7,98.8 80,98.6 80.1,98.2 L80.9,95.9 L83.3,95.2 C83.6,95.2 83.8,94.9 83.9,94.5 Z M79.8,94.2 C79.5,94.3 79.2,94.5 79.1,94.8 L78.8,95.7 L78.3,95 C78.1,94.7 77.8,94.6 77.5,94.6 L76.5,94.6 L77.1,93.8 C77.3,93.5 77.4,93.2 77.3,92.9 L76.9,92 L77.8,92.3 C78.1,92.4 78.5,92.4 78.7,92.2 L79.5,91.6 L79.5,92.6 C79.5,92.9 79.6,93.2 79.9,93.4 L80.7,94 L79.8,94.2 Z" id="Shape"></path>
                    <path d="M14.075,121.109017 C14.275,121.409017 14.575,121.709017 14.975,121.709017 L18.775,121.709017 L20.875,124.809017 C21.075,125.109017 21.375,125.209017 21.675,125.209017 C21.675,125.209017 21.775,125.209017 21.775,125.209017 C22.175,125.109017 22.475,124.909017 22.575,124.509017 L23.775,120.909017 L27.375,119.809017 C27.775,119.709017 27.975,119.409017 28.075,119.009017 C28.175,118.609017 27.975,118.209017 27.675,118.009017 L24.675,115.809017 L24.775,112.009017 C24.775,111.609017 24.575,111.309017 24.275,111.109017 C23.975,110.909017 23.575,111.009017 23.175,111.209017 L20.075,113.409017 L16.475,112.109017 C16.075,112.009017 15.675,112.109017 15.475,112.309017 C15.175,112.609017 15.075,113.009017 15.175,113.309017 L16.375,116.909017 L14.075,119.909017 C13.975,120.409017 13.975,120.809017 14.075,121.109017 Z M18.575,117.009017 L17.875,114.809017 L19.975,115.609017 C20.275,115.709017 20.675,115.709017 20.875,115.509017 L22.675,114.209017 L22.575,116.509017 C22.575,116.809017 22.675,117.109017 22.975,117.309017 L24.775,118.609017 L22.575,119.209017 C22.275,119.309017 21.975,119.509017 21.875,119.809017 L21.175,122.009017 L19.875,120.109017 C19.675,119.809017 19.375,119.709017 19.075,119.709017 L16.775,119.709017 L18.175,117.909017 C18.575,117.609017 18.675,117.309017 18.575,117.009017 Z" id="Shape"></path>
                    <path d="M58.075,26.109017 C58.275,26.409017 58.575,26.709017 58.975,26.709017 L62.775,26.709017 L64.875,29.809017 C65.075,30.109017 65.375,30.209017 65.675,30.209017 C65.675,30.209017 65.775,30.209017 65.775,30.209017 C66.175,30.109017 66.475,29.909017 66.575,29.509017 L67.775,25.909017 L71.375,24.809017 C71.775,24.709017 71.975,24.409017 72.075,24.009017 C72.175,23.609017 71.975,23.209017 71.675,23.009017 L68.675,20.809017 L68.775,17.009017 C68.775,16.609017 68.575,16.309017 68.275,16.109017 C67.975,15.909017 67.575,16.009017 67.175,16.209017 L64.075,18.409017 L60.475,17.109017 C60.075,17.009017 59.675,17.109017 59.475,17.309017 C59.175,17.609017 59.075,18.009017 59.175,18.309017 L60.375,21.909017 L58.075,24.909017 C57.975,25.409017 57.975,25.809017 58.075,26.109017 Z M62.575,22.009017 L61.875,19.809017 L63.975,20.609017 C64.275,20.709017 64.675,20.709017 64.875,20.509017 L66.675,19.209017 L66.575,21.509017 C66.575,21.809017 66.675,22.109017 66.975,22.309017 L68.775,23.609017 L66.575,24.209017 C66.275,24.309017 65.975,24.509017 65.875,24.809017 L65.175,27.009017 L63.875,25.109017 C63.675,24.809017 63.375,24.709017 63.075,24.709017 L60.775,24.709017 L62.175,22.909017 C62.575,22.609017 62.675,22.309017 62.575,22.009017 Z" id="Shape-Copy"></path>
                    <path d="M37.7,127.1 L35.1,127.3 L33.5,125.3 C33.3,125 32.9,124.9 32.5,124.9 C32.1,125 31.8,125.3 31.7,125.6 L31.1,128.1 L28.7,129 C28.3,129.1 28.1,129.5 28.1,129.8 C28.1,130.2 28.2,130.5 28.6,130.7 L30.8,132.1 L30.9,134.7 C30.9,135.1 31.1,135.4 31.5,135.6 C31.6,135.7 31.8,135.7 31.9,135.7 C32.1,135.7 32.4,135.6 32.5,135.5 L34.5,133.8 L37,134.5 C37.4,134.6 37.8,134.5 38,134.2 C38.2,133.9 38.3,133.5 38.2,133.2 L37.2,130.8 L38.6,128.6 C38.8,128.3 38.8,127.9 38.6,127.5 C38.4,127.2 38.1,127.1 37.7,127.1 Z M35.1,131 L35.5,132 L34.5,131.7 C34.2,131.6 33.8,131.7 33.6,131.9 L32.8,132.6 L32.8,131.5 C32.8,131.2 32.6,130.9 32.3,130.7 L31.4,130.1 L32.4,129.7 C32.7,129.6 32.9,129.3 33,129 L33.3,127.9 L34,128.7 C34.2,129 34.5,129.1 34.9,129.1 L36,129 L35.4,129.9 C35,130.4 35,130.7 35.1,131 Z" id="Shape"></path>
                    <path d="M21.426013,175.9 L23.626013,177.3 L23.726013,179.9 C23.726013,180.3 23.926013,180.6 24.326013,180.8 C24.426013,180.9 24.626013,180.9 24.726013,180.9 C24.926013,180.9 25.226013,180.8 25.326013,180.7 L27.326013,179 L29.826013,179.7 C30.226013,179.8 30.626013,179.7 30.826013,179.4 C31.026013,179.1 31.126013,178.7 31.026013,178.4 L30.026013,176 L31.426013,173.8 C31.626013,173.5 31.626013,173.1 31.426013,172.7 C31.226013,172.4 30.926013,172.2 30.526013,172.2 L28.026013,172.4 L26.426013,170.4 C26.226013,170.1 25.826013,170 25.426013,170 C25.026013,170.1 24.726013,170.4 24.626013,170.7 L24.026013,173.2 L21.626013,174.1 C21.226013,174.2 21.026013,174.6 21.026013,174.9 C20.926013,175.4 21.126013,175.7 21.426013,175.9 Z M25.226013,174.9 C25.526013,174.8 25.726013,174.5 25.826013,174.2 L26.126013,173.1 L26.826013,173.9 C27.026013,174.2 27.326013,174.3 27.726013,174.3 L28.826013,174.2 L28.226013,175.1 C28.026013,175.4 28.026013,175.7 28.126013,176 L28.526013,177 L27.526013,176.7 C27.226013,176.6 26.826013,176.7 26.626013,176.9 L25.826013,177.6 L25.826013,176.5 C25.826013,176.2 25.626013,175.9 25.326013,175.7 L24.426013,175.1 L25.226013,174.9 Z" id="Shape"></path>
                    <path d="M60.5375,54.509017 L60.5375,54.509017 C60.9375,54.509017 61.2375,54.309017 61.4375,53.909017 L62.5375,51.609017 L65.1375,51.209017 C65.5375,51.109017 65.8375,50.909017 65.9375,50.509017 C66.0375,50.109017 65.9375,49.709017 65.6375,49.509017 L63.7375,47.709017 L64.1375,45.209017 C64.2375,44.809017 64.0375,44.409017 63.7375,44.209017 C63.4375,44.009017 63.0375,43.909017 62.6375,44.109017 L60.5375,45.309017 L58.2375,44.109017 C57.9375,43.909017 57.5375,44.009017 57.1375,44.209017 C56.8375,44.409017 56.6375,44.809017 56.7375,45.209017 L57.1375,47.709017 L55.3375,49.509017 C55.0375,49.809017 54.9375,50.209017 55.0375,50.509017 C55.1375,50.909017 55.4375,51.109017 55.8375,51.209017 L58.4375,51.609017 L59.5375,53.909017 C59.8375,54.209017 60.1375,54.509017 60.5375,54.509017 Z M58.2375,49.509017 L59.0375,48.709017 C59.2375,48.509017 59.3375,48.109017 59.3375,47.809017 L59.1375,46.709017 L60.1375,47.209017 C60.4375,47.409017 60.7375,47.409017 61.0375,47.209017 L62.0375,46.709017 L61.8375,47.809017 C61.7375,48.109017 61.9375,48.509017 62.1375,48.709017 L62.9375,49.509017 L61.8375,49.709017 C61.5375,49.709017 61.2375,50.009017 61.0375,50.209017 L60.5375,51.209017 L60.0375,50.209017 C59.9375,49.909017 59.6375,49.709017 59.2375,49.709017 L58.2375,49.509017 Z" id="Shape"></path>
                    <path d="M7.33923048,79.9 C7.63923048,80.1 8.03923048,80.2 8.43923048,80 L10.6392305,78.9 L12.7392305,80.1 C12.9392305,80.2 13.0392305,80.2 13.2392305,80.2 C13.4392305,80.2 13.6392305,80.1 13.8392305,80 C14.1392305,79.8 14.3392305,79.4 14.2392305,79 L13.8392305,76.6 L15.6392305,74.9 C15.9392305,74.6 16.0392305,74.2 15.9392305,73.9 C15.8392305,73.5 15.5392305,73.3 15.1392305,73.2 L12.7392305,72.8 L11.7392305,70.6 C11.5392305,70.3 11.2392305,70 10.8392305,70 C10.4392305,70 10.1392305,70.2 9.93923048,70.5 L8.83923048,72.7 L6.43923048,73 C6.03923048,73 5.73923048,73.3 5.63923048,73.7 C5.53923048,74.1 5.63923048,74.5 5.83923048,74.7 L7.53923048,76.5 L6.93923048,78.9 C6.93923048,79.3 7.03923048,79.7 7.33923048,79.9 Z M9.53923048,74.7 C9.83923048,74.7 10.1392305,74.5 10.3392305,74.2 L10.7392305,73.4 L11.1392305,74.3 C11.2392305,74.6 11.5392305,74.8 11.8392305,74.9 L12.7392305,75.1 L12.0392305,75.8 C11.8392305,76 11.6392305,76.4 11.7392305,76.7 L11.8392305,77.6 L11.0392305,77.1 C10.8392305,77 10.7392305,77 10.5392305,77 C10.3392305,77 10.2392305,77 10.1392305,77.1 L9.23923048,77.5 L9.43923048,76.6 C9.53923048,76.3 9.43923048,75.9 9.13923048,75.7 L8.43923048,75 L9.53923048,74.7 Z" id="Shape"></path>
                    <circle id="Oval" transform="translate(2.525600, 75.446300) rotate(-66.000859) translate(-2.525600, -75.446300) " cx="2.5256" cy="75.4463" r="1.09993793"></circle>
                    <circle id="Oval" transform="translate(44.741240, 138.283160) rotate(-66.000859) translate(-44.741240, -138.283160) " cx="44.74124" cy="138.28316" r="1.09993793"></circle>
                    <circle id="Oval" transform="translate(80.462170, 138.313040) rotate(-65.995624) translate(-80.462170, -138.313040) " cx="80.46217" cy="138.31304" r="1.09998267"></circle>
                    <circle id="Oval" transform="translate(81.452220, 81.452220) rotate(-66.000859) translate(-81.452220, -81.452220) " cx="81.45222" cy="81.45222" r="1.09993793"></circle>
                    <circle id="Oval-Copy-18" transform="translate(64.452220, 68.452220) rotate(-66.000859) translate(-64.452220, -68.452220) " cx="64.45222" cy="68.45222" r="1.09993793"></circle>
                    <circle id="Oval-Copy-19" transform="translate(67.452220, 95.452220) rotate(-66.000859) translate(-67.452220, -95.452220) " cx="67.45222" cy="95.45222" r="1.09993793"></circle>
                    <circle id="Oval" transform="translate(80.382280, 62.857560) rotate(-66.000859) translate(-80.382280, -62.857560) " cx="80.38228" cy="62.85756" r="1.09993793"></circle>
                    <circle id="Oval" transform="translate(34.375230, 61.748490) rotate(-66.000859) translate(-34.375230, -61.748490) " cx="34.37523" cy="61.74849" r="1.09993793"></circle>
                    <circle id="Oval" cx="48.5" cy="94.9" r="1.1"></circle>
                    <circle id="Oval" cx="47.7" cy="76.2" r="1.1"></circle>
                    <circle id="Oval" cx="31.7" cy="112.4" r="1.1"></circle>
                    <circle id="Oval" cx="23.7" cy="136.4" r="1.1"></circle>
                    <circle id="Oval" transform="translate(19.882970, 63.939890) rotate(-66.003189) translate(-19.882970, -63.939890) " cx="19.88297" cy="63.93989" r="1.10003842"></circle>
                    <circle id="Oval" transform="translate(5.452330, 44.452330) rotate(-66.003189) translate(-5.452330, -44.452330) " cx="5.45233" cy="44.45233" r="1.10003842"></circle>
                    <circle id="Oval-Copy-12" transform="translate(5.452330, 14.452330) rotate(-66.003189) translate(-5.452330, -14.452330) " cx="5.45233" cy="14.45233" r="1.10003842"></circle>
                    <circle id="Oval-Copy-13" transform="translate(33.452330, 2.452330) rotate(-66.003189) translate(-33.452330, -2.452330) " cx="33.45233" cy="2.45233" r="1.10003842"></circle>
                    <circle id="Oval-Copy-14" transform="translate(62.452330, 35.452330) rotate(-66.003189) translate(-62.452330, -35.452330) " cx="62.45233" cy="35.45233" r="1.10003842"></circle>
                    <circle id="Oval-Copy-15" transform="translate(82.452330, 9.452330) rotate(-66.003189) translate(-82.452330, -9.452330) " cx="82.45233" cy="9.45233" r="1.10003842"></circle>
                    <circle id="Oval-Copy-16" transform="translate(64.452330, 5.452330) rotate(-66.003189) translate(-64.452330, -5.452330) " cx="64.45233" cy="5.45233" r="1.10003842"></circle>
                    <circle id="Oval-Copy-17" transform="translate(77.452330, 42.452330) rotate(-66.003189) translate(-77.452330, -42.452330) " cx="77.45233" cy="42.45233" r="1.10003842"></circle>
                    <circle id="Oval-Copy" transform="translate(12.452330, 100.452330) rotate(-66.003189) translate(-12.452330, -100.452330) " cx="12.45233" cy="100.45233" r="1.10003842"></circle>
                    <circle id="Oval-Copy-2" transform="translate(2.452330, 139.452330) rotate(-66.003189) translate(-2.452330, -139.452330) " cx="2.45233" cy="139.45233" r="1.10003842"></circle>
                    <circle id="Oval-Copy-3" transform="translate(35.452330, 194.452330) rotate(-66.003189) translate(-35.452330, -194.452330) " cx="35.45233" cy="194.45233" r="1.10003842"></circle>
                    <circle id="Oval-Copy-4" transform="translate(5.452330, 188.452330) rotate(-66.003189) translate(-5.452330, -188.452330) " cx="5.45233" cy="188.45233" r="1.10003842"></circle>
                    <circle id="Oval-Copy-5" transform="translate(15.452330, 170.452330) rotate(-66.003189) translate(-15.452330, -170.452330) " cx="15.45233" cy="170.45233" r="1.10003842"></circle>
                    <circle id="Oval-Copy-20" transform="translate(83.452330, 177.452330) rotate(-66.003189) translate(-83.452330, -177.452330) " cx="83.45233" cy="177.45233" r="1.10003842"></circle>
                    <circle id="Oval-Copy-21" transform="translate(65.452330, 192.452330) rotate(-66.003189) translate(-65.452330, -192.452330) " cx="65.45233" cy="192.45233" r="1.10003842"></circle>
                    <circle id="Oval-Copy-6" transform="translate(15.452330, 158.452330) rotate(-66.003189) translate(-15.452330, -158.452330) " cx="15.45233" cy="158.45233" r="1.10003842"></circle>
                    <circle id="Oval-Copy-7" transform="translate(1.452330, 161.452330) rotate(-66.003189) translate(-1.452330, -161.452330) " cx="1.45233" cy="161.45233" r="1.10003842"></circle>
                    <circle id="Oval-Copy-8" transform="translate(30.452330, 153.452330) rotate(-66.003189) translate(-30.452330, -153.452330) " cx="30.45233" cy="153.45233" r="1.10003842"></circle>
                    <circle id="Oval-Copy-10" transform="translate(61.452330, 135.452330) rotate(-66.003189) translate(-61.452330, -135.452330) " cx="61.45233" cy="135.45233" r="1.10003842"></circle>
                    <circle id="Oval-Copy-11" transform="translate(80.452330, 113.452330) rotate(-66.003189) translate(-80.452330, -113.452330) " cx="80.45233" cy="113.45233" r="1.10003842"></circle>
                    <circle id="Oval-Copy-9" transform="translate(82.452330, 191.452330) rotate(-66.003189) translate(-82.452330, -191.452330) " cx="82.45233" cy="191.45233" r="1.10003842"></circle>
                    <path d="M55,87.5 C55,85.6 53.4,84 51.5,84 C49.6,84 48,85.6 48,87.5 C48,89.4 49.6,91 51.5,91 C53.4,91 55,89.4 55,87.5 Z M50,87.5 C50,86.7 50.7,86 51.5,86 C52.3,86 53,86.7 53,87.5 C53,88.3 52.3,89 51.5,89 C50.7,89 50,88.3 50,87.5 Z" id="Shape"></path>
                    <path d="M31,81.5 C31,79.6 29.4,78 27.5,78 C25.6,78 24,79.6 24,81.5 C24,83.4 25.6,85 27.5,85 C29.4,85 31,83.4 31,81.5 Z M26,81.5 C26,80.7 26.7,80 27.5,80 C28.3,80 29,80.7 29,81.5 C29,82.3 28.3,83 27.5,83 C26.7,83 26,82.3 26,81.5 Z" id="Shape-Copy-2"></path>
                    <path d="M17,3.5 C17,1.6 15.4,0 13.5,0 C11.6,0 10,1.6 10,3.5 C10,5.4 11.6,7 13.5,7 C15.4,7 17,5.4 17,3.5 Z M12,3.5 C12,2.7 12.7,2 13.5,2 C14.3,2 15,2.7 15,3.5 C15,4.3 14.3,5 13.5,5 C12.7,5 12,4.3 12,3.5 Z" id="Shape-Copy-3"></path>
                    <path d="M80,128.5 C80,126.6 78.4,125 76.5,125 C74.6,125 73,126.6 73,128.5 C73,130.4 74.6,132 76.5,132 C78.4,132 80,130.4 80,128.5 Z M75,128.5 C75,127.7 75.7,127 76.5,127 C77.3,127 78,127.7 78,128.5 C78,129.3 77.3,130 76.5,130 C75.7,130 75,129.3 75,128.5 Z" id="Shape-Copy-4"></path>
                    <path d="M10,177.5 C10,175.6 8.4,174 6.5,174 C4.6,174 3,175.6 3,177.5 C3,179.4 4.6,181 6.5,181 C8.4,181 10,179.4 10,177.5 Z M5,177.5 C5,176.7 5.7,176 6.5,176 C7.3,176 8,176.7 8,177.5 C8,178.3 7.3,179 6.5,179 C5.7,179 5,178.3 5,177.5 Z" id="Shape-Copy-5"></path>
                    <path d="M87,157.5 C87,155.6 85.4,154 83.5,154 C81.6,154 80,155.6 80,157.5 C80,159.4 81.6,161 83.5,161 C85.4,161 87,159.4 87,157.5 Z M82,157.5 C82,156.7 82.7,156 83.5,156 C84.3,156 85,156.7 85,157.5 C85,158.3 84.3,159 83.5,159 C82.7,159 82,158.3 82,157.5 Z" id="Shape-Copy-6"></path>
                    <path d="M2.1,109.2 C2.1,111.1 3.7,112.7 5.6,112.7 C7.5,112.7 9.1,111.1 9.1,109.2 C9.1,107.3 7.5,105.7 5.6,105.7 C3.7,105.7 2.1,107.2 2.1,109.2 Z M5.6,107.7 C6.4,107.7 7.1,108.4 7.1,109.2 C7.1,110 6.4,110.7 5.6,110.7 C4.8,110.7 4.1,110 4.1,109.2 C4.1,108.4 4.8,107.7 5.6,107.7 Z" id="Shape"></path>
                    <g id="Group-11" transform="translate(36.000000, 144.000000)">
                        <path d="M21.6,0.8 C10.1,0.8 0.8,10.1 0.8,21.6 C0.8,33.1 10.1,42.4 21.6,42.4 C33.1,42.4 42.4,33.1 42.4,21.6 C42.4,10.1 33.1,0.8 21.6,0.8 Z M21.6,40.4 C11.2,40.4 2.8,32 2.8,21.6 C2.8,11.2 11.2,2.8 21.6,2.8 C32,2.8 40.4,11.2 40.4,21.6 C40.4,32 32,40.4 21.6,40.4 Z" id="Shape"></path>
                        <path d="M34,18.8 C31.8,18.8 30,20.6 30,22.8 C30,25 31.8,26.8 34,26.8 C36.2,26.8 38,25 38,22.8 C38,20.6 36.2,18.8 34,18.8 Z M34,24.9 C32.9,24.9 32,24 32,22.9 C32,21.8 32.9,20.9 34,20.9 C35.1,20.9 36,21.8 36,22.9 C36,24 35.1,24.9 34,24.9 Z" id="Shape"></path>
                        <path d="M28.4,15.3 C30.6,15.3 32.4,13.5 32.4,11.3 C32.4,9.1 30.6,7.3 28.4,7.3 C26.2,7.3 24.4,9.1 24.4,11.3 C24.4,13.5 26.2,15.3 28.4,15.3 Z M28.4,9.3 C29.5,9.3 30.4,10.2 30.4,11.3 C30.4,12.4 29.5,13.3 28.4,13.3 C27.3,13.3 26.4,12.4 26.4,11.3 C26.4,10.2 27.3,9.3 28.4,9.3 Z" id="Shape"></path>
                        <path d="M16.4,27.6 C14.2,27.6 12.4,29.4 12.4,31.6 C12.4,33.8 14.2,35.6 16.4,35.6 C18.6,35.6 20.4,33.8 20.4,31.6 C20.4,29.4 18.6,27.6 16.4,27.6 Z M16.4,33.6 C15.3,33.6 14.4,32.7 14.4,31.6 C14.4,30.5 15.3,29.6 16.4,29.6 C17.5,29.6 18.4,30.5 18.4,31.6 C18.4,32.7 17.5,33.6 16.4,33.6 Z" id="Shape"></path>
                        <path d="M27.2,20.4 C27.2,18.2 25.4,16.4 23.2,16.4 C21,16.4 19.2,18.2 19.2,20.4 C19.2,22.6 21,24.4 23.2,24.4 C25.4,24.4 27.2,22.6 27.2,20.4 Z M23.2,22.4 C22.1,22.4 21.2,21.5 21.2,20.4 C21.2,19.3 22.1,18.4 23.2,18.4 C24.3,18.4 25.2,19.3 25.2,20.4 C25.2,21.5 24.3,22.4 23.2,22.4 Z" id="Shape"></path>
                        <path d="M16.5,17.4 C16.5,15.6 15.1,14.2 13.3,14.2 C11.5,14.2 10.1,15.6 10.1,17.4 C10.1,19.2 11.5,20.6 13.3,20.6 C15.1,20.6 16.5,19.1 16.5,17.4 Z M12.1,17.4 C12.1,16.7 12.6,16.2 13.3,16.2 C14,16.2 14.5,16.7 14.5,17.4 C14.5,18.1 14,18.6 13.3,18.6 C12.6,18.6 12.1,18 12.1,17.4 Z" id="Shape"></path>
                        <path d="M7.8,20.7 C6.3,20.7 5.1,21.9 5.1,23.4 C5.1,24.9 6.3,26.1 7.8,26.1 C9.3,26.1 10.5,24.9 10.5,23.4 C10.6,22 9.3,20.7 7.8,20.7 Z M7.8,24.2 C7.4,24.2 7.1,23.9 7.1,23.5 C7.1,23.1 7.4,22.8 7.8,22.8 C8.2,22.8 8.5,23.1 8.5,23.5 C8.5,23.9 8.2,24.2 7.8,24.2 Z" id="Shape"></path>
                        <path d="M27.5,29.6 C25.7,29.6 24.3,31 24.3,32.8 C24.3,34.6 25.7,36 27.5,36 C29.3,36 30.7,34.6 30.7,32.8 C30.7,31 29.3,29.6 27.5,29.6 Z M27.5,34 C26.8,34 26.3,33.5 26.3,32.8 C26.3,32.1 26.8,31.6 27.5,31.6 C28.2,31.6 28.7,32.1 28.7,32.8 C28.7,33.5 28.2,34 27.5,34 Z" id="Shape"></path>
                        <path d="M16.1,11.7 C17.9,11.7 19.3,10.3 19.3,8.5 C19.3,6.7 17.9,5.3 16.1,5.3 C14.3,5.3 12.9,6.7 12.9,8.5 C12.9,10.3 14.4,11.7 16.1,11.7 Z M16.1,7.3 C16.8,7.3 17.3,7.8 17.3,8.5 C17.3,9.2 16.8,9.7 16.1,9.7 C15.4,9.7 14.9,9.2 14.9,8.5 C14.9,7.8 15.5,7.3 16.1,7.3 Z" id="Shape"></path>
                    </g>
                    <path d="M59.2,125.4 C65.9,125.4 71.4,119.9 71.4,113.2 C71.4,106.5 65.9,101 59.2,101 C52.5,101 47,106.5 47,113.2 C47,120 52.5,125.4 59.2,125.4 Z M59.2,103 C64.8,103 69.4,107.6 69.4,113.2 C69.4,118.8 64.9,123.4 59.2,123.4 C53.5,123.4 49,118.9 49,113.2 C49,107.5 53.6,103 59.2,103 Z" id="Shape"></path>
                    <path d="M29.1,16 C18.6,16 10,24.6 10,35.1 C10,45.6 18.6,54.2 29.1,54.2 C39.6,54.2 48.2,45.6 48.2,35.1 C48.2,24.5 39.6,16 29.1,16 Z M29.1,52.2 C20,52.2 12.5,45.1 12,36.1 L24.3,36.1 C24.9,36.1 25.3,35.7 25.3,35.1 C25.3,34.5 24.9,34.1 24.3,34.1 L12,34.1 C12.1,33.1 12.2,32.1 12.4,31.2 L27.8,31.2 C28.4,31.2 28.8,30.8 28.8,30.2 C28.8,29.6 28.4,29.2 27.8,29.2 L13,29.2 C15.4,22.7 21.7,18 29,18 C34.2,18 38.8,20.3 42,24 L34.4,24 C33.8,24 33.4,24.4 33.4,25 C33.4,25.6 33.8,26 34.4,26 L43.3,26 C43.4,26 43.4,26 43.5,26 C45.2,28.7 46.2,31.8 46.2,35.2 C46.2,36.5 46.1,37.7 45.8,38.9 L30.3,38.9 C29.7,38.9 29.3,39.3 29.3,39.9 C29.3,40.5 29.7,40.9 30.3,40.9 L45.2,40.9 C45,41.5 44.7,42.2 44.4,42.8 L36.6,42.8 C36,42.8 35.6,43.2 35.6,43.8 C35.6,44.4 36,44.8 36.6,44.8 L43.2,44.8 C40.2,49.2 35,52.2 29.1,52.2 Z" id="Shape"></path>
                </g>
            </g>
        </g>
    </g>
</svg>