<?xml version="1.0" encoding="utf-8"?>
<!-- Generator: Adobe Illustrator 18.1.0, SVG Export Plug-In . SVG Version: 6.00 Build 0)  -->
<!DOCTYPE svg PUBLIC "-//W3C//DTD SVG 1.1//EN" "http://www.w3.org/Graphics/SVG/1.1/DTD/svg11.dtd">
<svg fill="#333" version="1.1" id="Layer_1" xmlns="http://www.w3.org/2000/svg" xmlns:xlink="http://www.w3.org/1999/xlink" x="0px" y="0px"
	 viewBox="0 0 77.3 80.7" enable-background="new 0 0 77.3 80.7" xml:space="preserve">
<g>
	<path d="M65.1,46.9h-9.1c-0.5,0-0.9,0.3-0.9,0.8v10.1H22.2V47.8c0-0.5-0.4-0.8-0.9-0.8h-9c-0.5,0-0.9,0.3-0.9,0.8v20.2V68
		c0,0.1,0.1,0.2,0.1,0.3c0,0.1,0,0.2,0.1,0.3c0,0,0.1,0,0.2,0.1c0.1,0.1,0.3,0.2,0.4,0.2h0.1h52.8h0.1c0.2,0,0.3-0.1,0.4-0.2
		c0.1,0,0.2,0,0.2-0.1c0-0.1,0-0.1,0.1-0.2c0.1-0.1,0.2-0.2,0.2-0.4v-0.1V47.8C65.9,47.2,65.6,46.9,65.1,46.9"/>
	<path d="M51.5,27.2L51.3,27c0,0,0-0.1,0-0.1L40.1,12.2c-0.4-0.4-1-0.4-1.5,0.1L26.1,26.9c0,0,0,0.1,0,0.1l-0.2,0.2h0.1
		c-0.1,0.3-0.1,0.6,0.2,0.9h7v20.6c0,0.5,0.4,0.8,0.9,0.8h9c0.5,0,0.9-0.3,0.9-0.8V28.1h7.3c0.3-0.3,0.3-0.6,0.2-0.9H51.5z"/>
</g>
</svg>
