<?xml version="1.0" encoding="UTF-8"?>
<svg width="120px" height="227px" viewBox="0 0 120 227" version="1.1" xmlns="http://www.w3.org/2000/svg" xmlns:xlink="http://www.w3.org/1999/xlink">
    <!-- Generator: Sketch 46.2 (44496) - http://www.bohemiancoding.com/sketch -->
    <title>Group 16</title>
    <desc>Created with Sketch.</desc>
    <defs></defs>
    <g id="Page-1" stroke="none" stroke-width="1" fill="none" fill-rule="evenodd">
        <g id="1-panel_example_1-copy-3" transform="translate(-285.000000, -305.000000)">
            <g id="Group-16" transform="translate(285.000000, 305.000000)">
                <g id="Group-3-Copy-2">
                    <rect id="Rectangle-3" fill="#8439F6" x="0" y="0" width="120" height="227"></rect>
                    <g id="noun_1258010_cc" transform="translate(10.000000, 10.000000)" fill-rule="nonzero" fill="#010165">
                        <path d="M101,208 L101,0 L0,0 L0,208 L1.61858974,208 L101,208 Z M3.23717949,3.25355858 L97.7628205,3.25355858 L97.7628205,204.746441 L3.23717949,204.746441 L3.23717949,3.25355858 Z" id="Shape"></path>
                    </g>
                </g>
                <rect id="Rectangle-5" fill="#00FFFF" x="13" y="13" width="95" height="202"></rect>
                <g id="Group-10" transform="translate(59.000000, 22.000000)" fill-rule="nonzero" fill="#010165">
                    <path d="M21,31 C26.5138979,31 31,26.5136079 31,21.0006465 C31,15.4850992 26.5138979,11 21,11 C15.4861021,11 11,15.4863921 11,21.0006465 C11,26.5149008 15.4861021,31 21,31 Z M21,13.5858168 C25.0879121,13.5858168 28.4143504,16.9124701 28.4143504,21.0006465 C28.4143504,25.0888228 25.0879121,28.4141832 21,28.4141832 C16.9120879,28.4141832 13.5856496,25.0888228 13.5856496,21.0006465 C13.5856496,16.9124701 16.9120879,13.5858168 21,13.5858168 Z" id="Shape"></path>
                    <path d="M21.5,7 C22.328,7 23,6.40149197 23,5.66105585 L23,1.33894415 C23,0.598508034 22.328,0 21.5,0 C20.672,0 20,0.598508034 20,1.33894415 L20,5.66105585 C20,6.40015302 20.6705,7 21.5,7 Z" id="Shape"></path>
                    <path d="M13.6889755,7.27977866 C13.8894806,7.73203886 14.3303503,8 14.7929614,8 C14.9572306,8 15.1239156,7.96726267 15.2833534,7.89451304 C15.8921158,7.62170192 16.1663005,6.90633056 15.8957394,6.29523366 L14.3110245,2.72080182 C14.0392555,2.10727994 13.3266169,1.83204384 12.7166466,2.10606744 C12.1078842,2.37887856 11.8336995,3.09424992 12.1042606,3.70534682 L13.6889755,7.27977866 Z" id="Shape"></path>
                    <path d="M8.72308857,10.6910203 C8.98367331,10.8978083 9.30974533,11 9.63445302,11 C10.0082762,11 10.3793707,10.8665496 10.6495057,10.6020534 C11.1543033,10.1091286 11.1079165,9.34810089 10.5485461,8.90446859 L7.27691143,6.30879888 C6.71754103,5.86516658 5.85392771,5.90363876 5.35049435,6.39776579 C4.84569667,6.89069056 4.89208348,7.65171832 5.45145388,8.09535061 L8.72308857,10.6910203 Z" id="Shape"></path>
                    <path d="M1.81834483,15.6028222 L5.4507596,16.9346115 C5.5726686,16.9786487 5.69576118,17 5.8164866,17 C6.31595842,17 6.77873919,16.6410307 6.94207358,16.0792238 C7.14328261,15.3786333 6.80359442,14.6246644 6.1822136,14.396472 L2.54979883,13.0646827 C1.92723442,12.8391593 1.26087746,13.2221488 1.05848485,13.9214049 C0.856092239,14.6219954 1.19578042,15.3746299 1.81834483,15.6028222 Z" id="Shape"></path>
                    <path d="M1.34324042,24 C1.39027256,24 1.4373047,23.9974346 1.48433684,23.9923037 L5.79651222,23.558743 C6.53424494,23.484345 7.07041134,22.8532448 6.99247236,22.1490294 C6.91453339,21.444814 6.24398944,20.9317245 5.51566316,21.0074052 L1.20348778,21.4409658 C0.465755062,21.5153638 -0.0704113379,22.146464 0.00752763752,22.8506794 C0.0814352866,23.5112822 0.664633827,24 1.34324042,24 Z" id="Shape"></path>
                    <path d="M8.83230061,27.6925005 C8.48694388,27.0310856 7.72240415,26.8027729 7.12303503,27.1860615 L3.62567245,29.417991 C3.02755462,29.7998959 2.82234265,30.6467284 3.16769939,31.3081434 C3.40043979,31.7509316 3.81962279,32 4.25257,32 C4.46403843,32 4.67926075,31.9405003 4.87696497,31.8145824 L8.37432755,29.5826529 C8.97244538,29.200748 9.17765735,28.3552992 8.83230061,27.6925005 Z" id="Shape"></path>
                    <path d="M8.52896775,37.7513517 C8.75730732,37.9192869 9.02028266,38 9.28197519,38 C9.67964522,38 10.0696184,37.8138392 10.3210485,37.4636486 L12.7545325,34.0658888 C13.1714446,33.4839736 13.0444468,32.6703338 12.4710322,32.2485429 C11.8963349,31.8267521 11.0958636,31.9543308 10.6789515,32.536246 L8.24546751,35.9340058 C7.82855538,36.515921 7.95555323,37.3295608 8.52896775,37.7513517 Z" id="Shape"></path>
                    <path d="M16.7784197,35.0747972 L16.0248316,39.359843 C15.8956772,40.0930258 16.2831405,40.8139888 16.8896049,40.9714873 C16.9682206,40.9918535 17.0468364,41 17.124329,41 C17.643193,41 18.1092721,40.5628058 18.2215803,39.9246653 L18.9751684,35.6396194 C19.1043228,34.9064367 18.7168595,34.1854736 18.1103951,34.0279751 C17.5005615,33.8786231 16.9075742,34.3416144 16.7784197,35.0747972 Z" id="Shape"></path>
                    <path d="M23.8896049,34.0291554 C23.2831405,34.1852698 22.8956772,34.9061107 23.0248316,35.6405269 L23.7784197,39.9248473 C23.8907279,40.5628799 24.356807,41 24.875671,41 C24.9531636,41 25.0317794,40.9904974 25.1103951,40.9714922 C25.7168595,40.8153778 26.1043228,40.0945368 25.9751684,39.3601207 L25.2215803,35.0758002 C25.0924258,34.3427416 24.4960692,33.8757561 23.8896049,34.0291554 Z" id="Shape"></path>
                    <path d="M29.5289678,32.2490831 C28.9555532,32.6708343 28.8285554,33.4843977 29.2454675,34.0662583 L31.6789515,37.463699 C31.9303816,37.8151584 32.3203548,38 32.7180248,38 C32.9797173,38 33.2426927,37.9192945 33.4710322,37.751375 C34.0444468,37.3296238 34.1714446,36.5160604 33.7545325,35.9341998 L31.3210485,32.5367591 C30.9041364,31.9548986 30.1036651,31.8260301 29.5289678,32.2490831 Z" id="Shape"></path>
                    <path d="M34.876965,27.1851791 C34.2763446,26.8032042 33.5130561,27.0315587 33.1676994,27.691711 C32.8223427,28.3546311 33.0275546,29.2002349 33.6256724,29.5822098 L37.123035,31.8145484 C37.3207393,31.9404894 37.5359616,32 37.74743,32 C38.1803772,32 38.6008115,31.750886 38.8323006,31.3080165 C39.1776573,30.6450964 38.9724454,29.7994926 38.3743276,29.4175177 L34.876965,27.1851791 Z" id="Shape"></path>
                    <path d="M36.4843368,21.0074052 C35.7506355,20.9317245 35.0854666,21.444814 35.0075276,22.1490294 C34.9295887,22.8532448 35.4657551,23.484345 36.2034878,23.558743 L40.5156632,23.9923037 C40.5626953,23.9974346 40.6110712,24 40.6567596,24 C41.3353662,24 41.9185647,23.5099995 41.9924724,22.8506794 C42.0704113,22.146464 41.5342449,21.5153638 40.7965122,21.4409658 L36.4843368,21.0074052 Z" id="Shape"></path>
                    <path d="M35.0579318,16.0795029 C35.2212814,16.6424736 35.6841052,17 36.1836236,17 C36.3043602,17 36.428648,16.9786551 36.5493846,16.9346314 L40.1821375,15.6032457 C40.8035761,15.3751225 41.1432959,14.6227162 40.9420682,13.921004 C40.7396567,13.2232939 40.0744214,12.8390864 39.4506154,13.0645415 L35.8178625,14.3959271 C35.1964239,14.6253843 34.8567041,15.3777906 35.0579318,16.0795029 Z" id="Shape"></path>
                    <path d="M32.3658053,11 C32.6904617,11 33.0178462,10.8978083 33.2770257,10.6910203 L36.5481434,8.09535061 C37.1087895,7.65171832 37.1538048,6.89069056 36.6490869,6.39776579 C36.1457331,5.90363876 35.2836204,5.86516658 34.7229743,6.30879888 L31.4518566,8.90446859 C30.8912105,9.34810089 30.8461952,10.1091286 31.3509131,10.6020534 C31.6210053,10.8665496 31.9920412,11 32.3658053,11 Z" id="Shape"></path>
                    <path d="M26.7167289,7.89453169 C26.8760701,7.96726846 27.0426541,8 27.2068238,8 C27.6691546,8 28.1097572,7.73208625 28.3101408,7.2811183 L29.8951027,3.70731856 C30.166707,3.09511745 29.8926884,2.37866031 29.2830877,2.10710972 C28.6746941,1.83071001 27.9612802,2.108322 27.6896759,2.72052311 L26.1047139,6.29432285 C25.8331097,6.90652396 26.1083353,7.6229811 26.7167289,7.89453169 Z" id="Shape"></path>
                </g>
                <g id="noun_1035916_cc" transform="translate(11.000000, 104.000000)" fill-rule="nonzero" fill="#010165">
                    <g id="Group">
                        <path d="M90.9484828,98.71 C89.5492754,98.71 88.9034873,98.282 88.1500679,97.64 C87.2890172,96.998 86.1050725,96.142 84.060077,96.142 C82.0150815,96.142 80.8311368,96.998 79.9700861,97.64 C79.2166667,98.282 78.5708786,98.71 77.1716712,98.71 C75.7724638,98.71 75.1266757,98.282 74.3732563,97.64 C73.5122056,96.998 72.3282609,96.142 70.2832654,96.142 C68.2382699,96.142 67.0543252,96.998 66.1932745,97.64 C65.4398551,98.282 64.794067,98.71 63.3948596,98.71 C61.9956522,98.71 61.3498641,98.282 60.5964447,97.64 C59.735394,96.998 58.5514493,96.142 56.5064538,96.142 C54.4614583,96.142 53.2775136,96.998 52.4164629,97.64 C51.6630435,98.282 51.0172554,98.71 49.618048,98.71 C48.2188406,98.71 47.5730525,98.282 46.8196332,97.64 C45.9585824,96.998 44.7746377,96.142 42.7296422,96.142 C40.6846467,96.142 39.500702,96.998 38.6396513,97.64 C37.8862319,98.282 37.2404438,98.71 35.8412364,98.71 C34.442029,98.71 33.7962409,98.282 33.0428216,97.64 C32.1817708,96.998 30.9978261,96.142 28.9528306,96.142 C26.9078351,96.142 25.7238904,96.998 24.8628397,97.64 C24.1094203,98.282 23.4636322,98.71 22.0644248,98.71 C20.6652174,98.71 20.0194293,98.282 19.26601,97.64 C18.4049592,96.998 17.2210145,96.142 15.176019,96.142 C13.1310236,96.142 11.9470788,96.998 11.0860281,97.64 C10.3326087,98.282 9.68682065,98.71 8.28761322,98.71 C6.8884058,98.71 6.24261775,98.282 5.48919837,97.64 C4.62814764,96.998 3.4442029,96.142 1.39920743,96.142 L1.39920743,98.282 C2.79841486,98.282 3.4442029,98.71 4.19762228,99.352 C5.05867301,99.994 6.24261775,100.85 8.28761322,100.85 C10.3326087,100.85 11.5165534,99.994 12.3776042,99.352 C13.1310236,98.71 13.7768116,98.282 15.176019,98.282 C16.5752264,98.282 17.2210145,98.71 17.9744339,99.352 C18.8354846,99.994 20.0194293,100.85 22.0644248,100.85 C24.1094203,100.85 25.293365,99.994 26.1544158,99.352 C26.9078351,98.71 27.5536232,98.282 28.9528306,98.282 C30.352038,98.282 30.9978261,98.71 31.7512455,99.352 C32.6122962,99.994 33.7962409,100.85 35.8412364,100.85 C37.8862319,100.85 39.0701766,99.994 39.9312274,99.352 C40.6846467,98.71 41.3304348,98.282 42.7296422,98.282 C44.1288496,98.282 44.7746377,98.71 45.5280571,99.352 C46.2814764,99.994 47.3577899,100.85 49.4027853,100.85 C51.4477808,100.85 52.6317255,99.994 53.4927763,99.352 C54.2461957,98.71 54.8919837,98.282 56.2911911,98.282 C57.6903986,98.282 58.3361866,98.71 59.089606,99.352 C59.9506567,99.994 61.1346014,100.85 63.1795969,100.85 C65.2245924,100.85 66.4085371,99.994 67.2695879,99.352 C68.0230072,98.71 68.6687953,98.282 70.0680027,98.282 C71.4672101,98.282 72.1129982,98.71 72.8664176,99.352 C73.7274683,99.994 74.911413,100.85 76.9564085,100.85 C79.001404,100.85 80.1853487,99.994 81.0463995,99.352 C81.7998188,98.71 82.4456069,98.282 83.8448143,98.282 C85.2440217,98.282 85.8898098,98.71 86.6432292,99.352 C87.5042799,99.994 88.6882246,100.85 90.7332201,100.85 C92.7782156,100.85 93.9621603,99.994 94.8232111,99.352 C95.6842618,98.71 96.2224185,98.282 97.6216259,98.282 L97.6216259,96.142 C95.5766304,96.142 94.3926857,96.998 93.531635,97.64 C92.9934783,98.282 92.3476902,98.71 90.9484828,98.71 Z" id="Shape"></path>
                        <path d="M90.9484828,104.86 C89.5492754,104.86 88.9034873,104.432 88.1500679,103.79 C87.2890172,103.148 86.1050725,102.292 84.060077,102.292 C82.0150815,102.292 80.8311368,103.148 79.9700861,103.79 C79.2166667,104.432 78.5708786,104.86 77.1716712,104.86 C75.7724638,104.86 75.1266757,104.432 74.3732563,103.79 C73.5122056,103.148 72.3282609,102.292 70.2832654,102.292 C68.2382699,102.292 67.0543252,103.148 66.1932745,103.79 C65.4398551,104.432 64.794067,104.86 63.3948596,104.86 C61.9956522,104.86 61.3498641,104.432 60.5964447,103.79 C59.735394,103.148 58.5514493,102.292 56.5064538,102.292 C54.4614583,102.292 53.2775136,103.148 52.4164629,103.79 C51.6630435,104.432 51.0172554,104.86 49.618048,104.86 C48.2188406,104.86 47.5730525,104.432 46.8196332,103.79 C45.9585824,103.148 44.7746377,102.292 42.7296422,102.292 C40.6846467,102.292 39.500702,103.148 38.6396513,103.79 C37.8862319,104.432 37.2404438,104.86 35.8412364,104.86 C34.442029,104.86 33.7962409,104.432 33.0428216,103.79 C32.1817708,103.148 30.9978261,102.292 28.9528306,102.292 C26.9078351,102.292 25.7238904,103.148 24.8628397,103.79 C24.1094203,104.432 23.4636322,104.86 22.0644248,104.86 C20.6652174,104.86 20.0194293,104.432 19.26601,103.79 C18.4049592,103.148 17.2210145,102.292 15.176019,102.292 C13.1310236,102.292 11.9470788,103.148 11.0860281,103.79 C10.3326087,104.432 9.68682065,104.86 8.28761322,104.86 C6.8884058,104.86 6.24261775,104.432 5.48919837,103.79 C4.62814764,103.148 3.4442029,102.292 1.39920743,102.292 L1.39920743,104.432 C2.79841486,104.432 3.4442029,104.86 4.19762228,105.502 C5.05867301,106.144 6.24261775,107 8.28761322,107 C10.3326087,107 11.5165534,106.144 12.3776042,105.502 C13.1310236,104.86 13.7768116,104.432 15.176019,104.432 C16.5752264,104.432 17.2210145,104.86 17.9744339,105.502 C18.8354846,106.144 20.0194293,107 22.0644248,107 C24.1094203,107 25.293365,106.144 26.1544158,105.502 C26.9078351,104.86 27.5536232,104.432 28.9528306,104.432 C30.352038,104.432 30.9978261,104.86 31.7512455,105.502 C32.6122962,106.144 33.7962409,107 35.8412364,107 C37.8862319,107 39.0701766,106.144 39.9312274,105.502 C40.6846467,104.86 41.3304348,104.432 42.7296422,104.432 C44.1288496,104.432 44.7746377,104.86 45.5280571,105.502 C46.2814764,106.144 47.3577899,107 49.4027853,107 C51.4477808,107 52.6317255,106.144 53.4927763,105.502 C54.2461957,104.86 54.8919837,104.432 56.2911911,104.432 C57.6903986,104.432 58.3361866,104.86 59.089606,105.502 C59.9506567,106.144 61.1346014,107 63.1795969,107 C65.2245924,107 66.4085371,106.144 67.2695879,105.502 C68.0230072,104.86 68.6687953,104.432 70.0680027,104.432 C71.4672101,104.432 72.1129982,104.86 72.8664176,105.502 C73.7274683,106.144 74.911413,107 76.9564085,107 C79.001404,107 80.1853487,106.144 81.0463995,105.502 C81.7998188,104.86 82.4456069,104.432 83.8448143,104.432 C85.2440217,104.432 85.8898098,104.86 86.6432292,105.502 C87.5042799,106.144 88.6882246,107 90.7332201,107 C92.7782156,107 93.9621603,106.144 94.8232111,105.502 C95.6842618,104.86 96.2224185,104.432 97.6216259,104.432 L97.6216259,102.292 C95.5766304,102.292 94.3926857,103.148 93.531635,103.79 C92.9934783,104.432 92.3476902,104.86 90.9484828,104.86 Z" id="Shape"></path>
                        <path d="M90.9484828,92.56 C89.5492754,92.56 88.9034873,92.132 88.1500679,91.49 C87.2890172,90.848 86.1050725,89.992 84.060077,89.992 C82.0150815,89.992 80.8311368,90.848 79.9700861,91.49 C79.2166667,92.132 78.5708786,92.56 77.1716712,92.56 C75.7724638,92.56 75.1266757,92.132 74.3732563,91.49 C73.5122056,90.848 72.3282609,89.992 70.2832654,89.992 C68.2382699,89.992 67.0543252,90.848 66.1932745,91.49 C65.4398551,92.132 64.794067,92.56 63.3948596,92.56 C61.9956522,92.56 61.3498641,92.132 60.5964447,91.49 C59.735394,90.848 58.5514493,89.992 56.5064538,89.992 C54.4614583,89.992 53.2775136,90.848 52.4164629,91.49 C51.6630435,92.132 51.0172554,92.56 49.618048,92.56 C48.2188406,92.56 47.5730525,92.132 46.8196332,91.49 C45.9585824,90.848 44.7746377,89.992 42.7296422,89.992 C40.6846467,89.992 39.500702,90.848 38.6396513,91.49 C37.8862319,92.132 37.2404438,92.56 35.8412364,92.56 C34.442029,92.56 33.7962409,92.132 33.0428216,91.49 C32.1817708,90.848 30.9978261,89.992 28.9528306,89.992 C26.9078351,89.992 25.7238904,90.848 24.8628397,91.49 C24.1094203,92.132 23.4636322,92.56 22.0644248,92.56 C20.6652174,92.56 20.0194293,92.132 19.26601,91.49 C18.4049592,90.848 17.2210145,89.992 15.176019,89.992 C13.1310236,89.992 11.9470788,90.848 11.0860281,91.49 C10.3326087,92.132 9.68682065,92.56 8.28761322,92.56 C6.8884058,92.56 6.24261775,92.132 5.48919837,91.49 C4.62814764,90.848 3.4442029,89.992 1.39920743,89.992 L1.39920743,92.132 C2.79841486,92.132 3.4442029,92.56 4.19762228,93.202 C5.05867301,93.844 6.24261775,94.7 8.28761322,94.7 C10.3326087,94.7 11.5165534,93.844 12.3776042,93.202 C13.1310236,92.56 13.7768116,92.132 15.176019,92.132 C16.5752264,92.132 17.2210145,92.56 17.9744339,93.202 C18.8354846,93.844 20.0194293,94.7 22.0644248,94.7 C24.1094203,94.7 25.293365,93.844 26.1544158,93.202 C26.9078351,92.56 27.5536232,92.132 28.9528306,92.132 C30.352038,92.132 30.9978261,92.56 31.7512455,93.202 C32.6122962,93.844 33.7962409,94.7 35.8412364,94.7 C37.8862319,94.7 39.0701766,93.844 39.9312274,93.202 C40.6846467,92.56 41.3304348,92.132 42.7296422,92.132 C44.1288496,92.132 44.7746377,92.56 45.5280571,93.202 C46.2814764,93.844 47.3577899,94.7 49.4027853,94.7 C51.4477808,94.7 52.6317255,93.844 53.4927763,93.202 C54.2461957,92.56 54.8919837,92.132 56.2911911,92.132 C57.6903986,92.132 58.3361866,92.56 59.089606,93.202 C59.9506567,93.844 61.1346014,94.7 63.1795969,94.7 C65.2245924,94.7 66.4085371,93.844 67.2695879,93.202 C68.0230072,92.56 68.6687953,92.132 70.0680027,92.132 C71.4672101,92.132 72.1129982,92.56 72.8664176,93.202 C73.7274683,93.844 74.911413,94.7 76.9564085,94.7 C79.001404,94.7 80.1853487,93.844 81.0463995,93.202 C81.7998188,92.56 82.4456069,92.132 83.8448143,92.132 C85.2440217,92.132 85.8898098,92.56 86.6432292,93.202 C87.5042799,93.844 88.6882246,94.7 90.7332201,94.7 C92.7782156,94.7 93.9621603,93.844 94.8232111,93.202 C95.6842618,92.56 96.2224185,92.132 97.6216259,92.132 L97.6216259,89.992 C95.5766304,89.992 94.3926857,90.848 93.531635,91.49 C92.9934783,92.132 92.3476902,92.56 90.9484828,92.56 Z" id="Shape"></path>
                        <path d="M90.9484828,80.26 C89.5492754,80.26 88.9034873,79.832 88.1500679,79.19 C87.2890172,78.548 86.1050725,77.692 84.060077,77.692 C82.0150815,77.692 80.8311368,78.548 79.9700861,79.19 C79.2166667,79.832 78.5708786,80.26 77.1716712,80.26 C75.7724638,80.26 75.1266757,79.832 74.3732563,79.19 C73.5122056,78.548 72.3282609,77.692 70.2832654,77.692 C68.2382699,77.692 67.0543252,78.548 66.1932745,79.19 C65.4398551,79.832 64.794067,80.26 63.3948596,80.26 C61.9956522,80.26 61.3498641,79.832 60.5964447,79.19 C59.735394,78.548 58.5514493,77.692 56.5064538,77.692 C54.4614583,77.692 53.2775136,78.548 52.4164629,79.19 C51.6630435,79.832 51.0172554,80.26 49.618048,80.26 C48.2188406,80.26 47.5730525,79.832 46.8196332,79.19 C45.9585824,78.548 44.7746377,77.692 42.7296422,77.692 C40.6846467,77.692 39.500702,78.548 38.6396513,79.19 C37.8862319,79.832 37.2404438,80.26 35.8412364,80.26 C34.442029,80.26 33.7962409,79.832 33.0428216,79.19 C32.1817708,78.548 30.9978261,77.692 28.9528306,77.692 C26.9078351,77.692 25.7238904,78.548 24.8628397,79.19 C24.1094203,79.832 23.4636322,80.26 22.0644248,80.26 C20.6652174,80.26 20.0194293,79.832 19.26601,79.19 C18.4049592,78.548 17.2210145,77.692 15.176019,77.692 C13.1310236,77.692 11.9470788,78.548 11.0860281,79.19 C10.3326087,79.832 9.68682065,80.26 8.28761322,80.26 C6.8884058,80.26 6.24261775,79.832 5.48919837,79.19 C4.62814764,78.548 3.4442029,77.692 1.39920743,77.692 L1.39920743,79.832 C2.79841486,79.832 3.4442029,80.26 4.19762228,80.902 C5.05867301,81.544 6.24261775,82.4 8.28761322,82.4 C10.3326087,82.4 11.5165534,81.544 12.3776042,80.902 C13.1310236,80.26 13.7768116,79.832 15.176019,79.832 C16.5752264,79.832 17.2210145,80.26 17.9744339,80.902 C18.8354846,81.544 20.0194293,82.4 22.0644248,82.4 C24.1094203,82.4 25.293365,81.544 26.1544158,80.902 C26.9078351,80.26 27.5536232,79.832 28.9528306,79.832 C30.352038,79.832 30.9978261,80.26 31.7512455,80.902 C32.6122962,81.544 33.7962409,82.4 35.8412364,82.4 C37.8862319,82.4 39.0701766,81.544 39.9312274,80.902 C40.6846467,80.26 41.3304348,79.832 42.7296422,79.832 C44.1288496,79.832 44.7746377,80.26 45.5280571,80.902 C46.2814764,81.544 47.3577899,82.4 49.4027853,82.4 C51.4477808,82.4 52.6317255,81.544 53.4927763,80.902 C54.2461957,80.26 54.8919837,79.832 56.2911911,79.832 C57.6903986,79.832 58.3361866,80.26 59.089606,80.902 C59.9506567,81.544 61.1346014,82.4 63.1795969,82.4 C65.2245924,82.4 66.4085371,81.544 67.2695879,80.902 C68.0230072,80.26 68.6687953,79.832 70.0680027,79.832 C71.4672101,79.832 72.1129982,80.26 72.8664176,80.902 C73.7274683,81.544 74.911413,82.4 76.9564085,82.4 C79.001404,82.4 80.1853487,81.544 81.0463995,80.902 C81.7998188,80.26 82.4456069,79.832 83.8448143,79.832 C85.2440217,79.832 85.8898098,80.26 86.6432292,80.902 C87.5042799,81.544 88.6882246,82.4 90.7332201,82.4 C92.7782156,82.4 93.9621603,81.544 94.8232111,80.902 C95.6842618,80.26 96.2224185,79.832 97.6216259,79.832 L97.6216259,77.692 C95.5766304,77.692 94.3926857,78.548 93.531635,79.19 C92.9934783,79.832 92.3476902,80.26 90.9484828,80.26 Z" id="Shape"></path>
                        <path d="M90.9484828,86.41 C89.5492754,86.41 88.9034873,85.982 88.1500679,85.34 C87.2890172,84.698 86.1050725,83.842 84.060077,83.842 C82.0150815,83.842 80.8311368,84.698 79.9700861,85.34 C79.2166667,85.982 78.5708786,86.41 77.1716712,86.41 C75.7724638,86.41 75.1266757,85.982 74.3732563,85.34 C73.5122056,84.698 72.3282609,83.842 70.2832654,83.842 C68.2382699,83.842 67.0543252,84.698 66.1932745,85.34 C65.4398551,85.982 64.794067,86.41 63.3948596,86.41 C61.9956522,86.41 61.3498641,85.982 60.5964447,85.34 C59.735394,84.698 58.5514493,83.842 56.5064538,83.842 C54.4614583,83.842 53.2775136,84.698 52.4164629,85.34 C51.6630435,85.982 51.0172554,86.41 49.618048,86.41 C48.2188406,86.41 47.5730525,85.982 46.8196332,85.34 C45.9585824,84.698 44.7746377,83.842 42.7296422,83.842 C40.6846467,83.842 39.500702,84.698 38.6396513,85.34 C37.8862319,85.982 37.2404438,86.41 35.8412364,86.41 C34.442029,86.41 33.7962409,85.982 33.0428216,85.34 C32.1817708,84.698 30.9978261,83.842 28.9528306,83.842 C26.9078351,83.842 25.7238904,84.698 24.8628397,85.34 C24.1094203,85.982 23.4636322,86.41 22.0644248,86.41 C20.6652174,86.41 20.0194293,85.982 19.26601,85.34 C18.4049592,84.698 17.2210145,83.842 15.176019,83.842 C13.1310236,83.842 11.9470788,84.698 11.0860281,85.34 C10.3326087,85.982 9.68682065,86.41 8.28761322,86.41 C6.8884058,86.41 6.24261775,85.982 5.48919837,85.34 C4.62814764,84.698 3.4442029,83.842 1.39920743,83.842 L1.39920743,85.982 C2.79841486,85.982 3.4442029,86.41 4.19762228,87.052 C5.05867301,87.694 6.24261775,88.55 8.28761322,88.55 C10.3326087,88.55 11.5165534,87.694 12.3776042,87.052 C13.1310236,86.41 13.7768116,85.982 15.176019,85.982 C16.5752264,85.982 17.2210145,86.41 17.9744339,87.052 C18.8354846,87.694 20.0194293,88.55 22.0644248,88.55 C24.1094203,88.55 25.293365,87.694 26.1544158,87.052 C26.9078351,86.41 27.5536232,85.982 28.9528306,85.982 C30.352038,85.982 30.9978261,86.41 31.7512455,87.052 C32.6122962,87.694 33.7962409,88.55 35.8412364,88.55 C37.8862319,88.55 39.0701766,87.694 39.9312274,87.052 C40.6846467,86.41 41.3304348,85.982 42.7296422,85.982 C44.1288496,85.982 44.7746377,86.41 45.5280571,87.052 C46.2814764,87.694 47.3577899,88.55 49.4027853,88.55 C51.4477808,88.55 52.6317255,87.694 53.4927763,87.052 C54.2461957,86.41 54.8919837,85.982 56.2911911,85.982 C57.6903986,85.982 58.3361866,86.41 59.089606,87.052 C59.9506567,87.694 61.1346014,88.55 63.1795969,88.55 C65.2245924,88.55 66.4085371,87.694 67.2695879,87.052 C68.0230072,86.41 68.6687953,85.982 70.0680027,85.982 C71.4672101,85.982 72.1129982,86.41 72.8664176,87.052 C73.7274683,87.694 74.911413,88.55 76.9564085,88.55 C79.001404,88.55 80.1853487,87.694 81.0463995,87.052 C81.7998188,86.41 82.4456069,85.982 83.8448143,85.982 C85.2440217,85.982 85.8898098,86.41 86.6432292,87.052 C87.5042799,87.694 88.6882246,88.55 90.7332201,88.55 C92.7782156,88.55 93.9621603,87.694 94.8232111,87.052 C95.6842618,86.41 96.2224185,85.982 97.6216259,85.982 L97.6216259,83.842 C95.5766304,83.842 94.3926857,84.698 93.531635,85.34 C92.9934783,85.982 92.3476902,86.41 90.9484828,86.41 Z" id="Shape"></path>
                        <path d="M90.9484828,74.11 C89.5492754,74.11 88.9034873,73.682 88.1500679,73.04 C87.2890172,72.398 86.1050725,71.542 84.060077,71.542 C82.0150815,71.542 80.8311368,72.398 79.9700861,73.04 C79.2166667,73.682 78.5708786,74.11 77.1716712,74.11 C75.7724638,74.11 75.1266757,73.682 74.3732563,73.04 C73.5122056,72.398 72.3282609,71.542 70.2832654,71.542 C68.2382699,71.542 67.0543252,72.398 66.1932745,73.04 C65.4398551,73.682 64.794067,74.11 63.3948596,74.11 C61.9956522,74.11 61.3498641,73.682 60.5964447,73.04 C59.735394,72.398 58.5514493,71.542 56.5064538,71.542 C54.4614583,71.542 53.2775136,72.398 52.4164629,73.04 C51.6630435,73.682 51.0172554,74.11 49.618048,74.11 C48.2188406,74.11 47.5730525,73.682 46.8196332,73.04 C45.9585824,72.398 44.7746377,71.542 42.7296422,71.542 C40.6846467,71.542 39.500702,72.398 38.6396513,73.04 C37.8862319,73.682 37.2404438,74.11 35.8412364,74.11 C34.442029,74.11 33.7962409,73.682 33.0428216,73.04 C32.1817708,72.398 30.9978261,71.542 28.9528306,71.542 C26.9078351,71.542 25.7238904,72.398 24.8628397,73.04 C24.1094203,73.682 23.4636322,74.11 22.0644248,74.11 C20.6652174,74.11 20.0194293,73.682 19.26601,73.04 C18.4049592,72.398 17.2210145,71.542 15.176019,71.542 C13.1310236,71.542 11.9470788,72.398 11.0860281,73.04 C10.3326087,73.682 9.68682065,74.11 8.28761322,74.11 C6.8884058,74.11 6.24261775,73.682 5.48919837,73.04 C4.62814764,72.398 3.4442029,71.542 1.39920743,71.542 L1.39920743,73.682 C2.79841486,73.682 3.4442029,74.11 4.19762228,74.752 C5.05867301,75.394 6.24261775,76.25 8.28761322,76.25 C10.3326087,76.25 11.5165534,75.394 12.3776042,74.752 C13.1310236,74.11 13.7768116,73.682 15.176019,73.682 C16.5752264,73.682 17.2210145,74.11 17.9744339,74.752 C18.8354846,75.394 20.0194293,76.25 22.0644248,76.25 C24.1094203,76.25 25.293365,75.394 26.1544158,74.752 C26.9078351,74.11 27.5536232,73.682 28.9528306,73.682 C30.352038,73.682 30.9978261,74.11 31.7512455,74.752 C32.6122962,75.394 33.7962409,76.25 35.8412364,76.25 C37.8862319,76.25 39.0701766,75.394 39.9312274,74.752 C40.6846467,74.11 41.3304348,73.682 42.7296422,73.682 C44.1288496,73.682 44.7746377,74.11 45.5280571,74.752 C46.2814764,75.394 47.3577899,76.25 49.4027853,76.25 C51.4477808,76.25 52.6317255,75.394 53.4927763,74.752 C54.2461957,74.11 54.8919837,73.682 56.2911911,73.682 C57.6903986,73.682 58.3361866,74.11 59.089606,74.752 C59.9506567,75.394 61.1346014,76.25 63.1795969,76.25 C65.2245924,76.25 66.4085371,75.394 67.2695879,74.752 C68.0230072,74.11 68.6687953,73.682 70.0680027,73.682 C71.4672101,73.682 72.1129982,74.11 72.8664176,74.752 C73.7274683,75.394 74.911413,76.25 76.9564085,76.25 C79.001404,76.25 80.1853487,75.394 81.0463995,74.752 C81.7998188,74.11 82.4456069,73.682 83.8448143,73.682 C85.2440217,73.682 85.8898098,74.11 86.6432292,74.752 C87.5042799,75.394 88.6882246,76.25 90.7332201,76.25 C92.7782156,76.25 93.9621603,75.394 94.8232111,74.752 C95.6842618,74.11 96.2224185,73.682 97.6216259,73.682 L97.6216259,71.542 C95.5766304,71.542 94.3926857,72.398 93.531635,73.04 C92.9934783,73.682 92.3476902,74.11 90.9484828,74.11 Z" id="Shape"></path>
                        <rect id="Rectangle-path" transform="translate(49.404968, 61.635072) rotate(-2.014422) translate(-49.404968, -61.635072) " x="0.969992737" y="60.5650524" width="96.8699502" height="2.14003852"></rect>
                        <path d="M48.97226,58.208 C48.97226,58.208 48.97226,58.208 48.97226,58.208 L77.8174592,58.208 C77.8174592,58.208 77.8174592,58.208 77.8174592,58.208 C77.8174592,58.208 77.8174592,58.208 77.8174592,58.208 L97.9445199,58.208 L97.9445199,56.068 L78.5708786,56.068 L77.2793025,52.002 C77.9250906,52.002 78.3556159,51.574 78.3556159,50.932 C78.3556159,50.29 77.9250906,49.862 77.2793025,49.862 L51.6630435,49.862 L50.4790987,47.08 L58.8743433,47.08 C59.5201313,47.08 59.9506567,46.652 59.9506567,46.01 C59.9506567,45.368 59.5201313,44.94 58.8743433,44.94 L49.5104167,44.94 L46.6043705,38.199 C46.3891078,37.664 45.7433197,37.45 45.205163,37.664 C44.6670063,37.878 44.4517437,38.52 44.6670063,39.055 L49.7256793,50.932 C49.7256793,50.932 49.7256793,51.039 49.7256793,51.039 L48.1112092,56.068 L44.1288496,56.068 C44.236481,55.854 44.236481,55.64 44.1288496,55.426 L33.0428216,24.396 C34.0115036,24.289 35.087817,24.503 35.9488678,25.145 C36.2717618,25.359 36.7022871,25.466 37.0251812,25.252 C37.3480752,25.145 37.6709692,24.824 37.7786005,24.396 C38.2091259,23.005 39.177808,21.935 40.4693841,21.507 C41.7609601,21.079 43.2677989,21.186 44.4517437,22.042 C44.7746377,22.256 45.205163,22.363 45.5280571,22.149 C45.8509511,22.042 46.1738451,21.721 46.2814764,21.293 C46.7120018,19.902 47.6806839,18.832 48.97226,18.404 C50.2638361,17.976 51.5554121,18.083 52.7393569,18.832 C53.1698822,19.153 53.8156703,19.046 54.1385643,18.725 C54.5690897,18.404 54.676721,17.762 54.4614583,17.334 C50.2638361,5.778 37.3480752,-0.428 25.5086277,3.21 L24.970471,1.605 C24.7552083,1.07 24.1094203,0.749 23.5712636,0.963 C23.0331069,1.177 22.7102129,1.819 22.9254755,2.354 L23.4636322,3.959 C11.9470788,8.56 5.91972373,21.507 9.79445199,33.277 L9.79445199,33.277 C10.0097147,33.812 10.44024,34.133 10.9783967,34.133 C10.9783967,34.133 10.9783967,34.133 10.9783967,34.133 C11.5165534,34.133 11.9470788,33.812 12.1623415,33.277 C12.5928668,31.993 13.5615489,31.03 14.853125,30.602 C16.1447011,30.174 17.6515399,30.281 18.8354846,31.137 C19.1583786,31.351 19.588904,31.458 19.911798,31.244 C20.234692,31.137 20.5575861,30.816 20.6652174,30.388 C21.0957428,28.997 22.0644248,27.927 23.3560009,27.499 C24.647577,27.071 26.1544158,27.178 27.3383605,28.034 C27.6612545,28.248 28.0917799,28.355 28.4146739,28.141 C28.7375679,28.034 29.060462,27.713 29.1680933,27.285 C29.4909873,26.322 30.1367754,25.466 30.9978261,24.931 L42.0838542,55.854 L1.07631341,55.854 L1.07631341,57.994 L48.97226,58.208 C48.97226,58.208 48.97226,58.208 48.97226,58.208 Z M39.823596,19.581 C38.6396513,20.009 37.6709692,20.758 36.9175498,21.721 C34.6572917,15.836 31.3207201,8.453 28.0917799,5.136 C33.5809783,5.35 39.7159647,11.021 43.3754303,19.367 C42.1914855,19.046 41.0075408,19.153 39.823596,19.581 Z M51.8783062,16.264 C50.6943614,16.05 49.5104167,16.157 48.4341033,16.478 C47.2501585,16.906 46.1738451,17.655 45.4204257,18.618 C42.5143795,11.77 37.8862319,6.634 33.0428216,4.28 C40.8999094,4.601 48.2188406,9.095 51.8783062,16.264 Z M14.0997056,28.676 C13.0233922,29.104 12.0547101,29.746 11.3012908,30.602 C9.57918931,22.791 12.4852355,14.552 18.4049592,9.523 C16.1447011,14.338 15.8218071,21.293 17.8668025,28.462 C16.5752264,28.141 15.2836504,28.248 14.0997056,28.676 Z M22.7102129,25.573 C21.5262681,26.001 20.5575861,26.643 19.8041667,27.606 C17.3286458,18.832 18.5125906,10.593 22.7102129,7.062 C22.3873188,11.556 24.4323143,19.474 26.3696784,25.466 C25.0781024,25.145 23.8941576,25.252 22.7102129,25.573 Z M28.3070426,24.717 C24.5399457,13.482 24.2170516,6.42 25.0781024,5.564 C25.0781024,5.564 25.0781024,5.564 25.0781024,5.564 C26.2620471,5.564 30.5673007,11.342 34.764923,22.363 C33.5809783,22.149 32.2894022,22.149 31.2130888,22.577 C30.1367754,23.005 29.060462,23.754 28.3070426,24.717 Z M51.7706748,52.002 L75.0190444,52.002 L76.3106205,56.068 L50.4790987,56.068 L51.7706748,52.002 Z" id="Shape"></path>
                    </g>
                </g>
            </g>
        </g>
    </g>
</svg>