<?xml version="1.0" encoding="UTF-8"?>
<svg width="165px" height="46px" viewBox="0 0 165 46" version="1.1" xmlns="http://www.w3.org/2000/svg" xmlns:xlink="http://www.w3.org/1999/xlink">
    <!-- Generator: Sketch 46.2 (44496) - http://www.bohemiancoding.com/sketch -->
    <title>Group 13</title>
    <desc>Created with Sketch.</desc>
    <defs></defs>
    <g id="Page-1" stroke="none" stroke-width="1" fill="none" fill-rule="evenodd">
        <g id="1-panel_example_1-copy-2" transform="translate(-114.000000, -2.000000)" fill="#010165">
            <g id="Group-13" transform="translate(114.000000, 2.000000)">
                <path d="M44.64,29.36 C44.2533314,30.626673 43.5666716,31.5833301 42.58,32.23 C41.5933284,32.8766699 40.4133402,33.2 39.04,33.2 C37.7466602,33.2 36.6200048,32.9266694 35.66,32.38 C34.6999952,31.8333306 33.9633359,31.0500051 33.45,30.03 C32.9366641,29.0099949 32.68,27.800007 32.68,26.4 C32.68,24.999993 32.9366641,23.7900051 33.45,22.77 C33.9633359,21.7499949 34.6966619,20.9666694 35.65,20.42 C36.6033381,19.8733306 37.7199936,19.6 39,19.6 C40.3733402,19.6 41.5366619,19.8866638 42.49,20.46 C43.4433381,21.0333362 44.0999982,21.886661 44.46,23.02 L41.96,24.08 C41.7466656,23.2933294 41.4133356,22.7266684 40.96,22.38 C40.5066644,22.0333316 39.8933372,21.86 39.12,21.86 C37.9999944,21.86 37.1233365,22.2533294 36.49,23.04 C35.8566635,23.8266706 35.54,24.9466594 35.54,26.4 C35.54,27.8533406 35.8466636,28.9733294 36.46,29.76 C37.0733364,30.5466706 37.9399944,30.94 39.06,30.94 C40.6733414,30.94 41.6866646,30.1600078 42.1,28.6 L44.64,29.36 Z M58.39,19.8 L58.39,33 L55.63,33 L55.63,27.44 L49.81,27.44 L49.81,33 L47.05,33 L47.05,19.8 L49.81,19.8 L49.81,25.22 L55.63,25.22 L55.63,19.8 L58.39,19.8 Z M67.58,19.6 C68.8733398,19.6 69.9966619,19.8733306 70.95,20.42 C71.9033381,20.9666694 72.6366641,21.7499949 73.15,22.77 C73.6633359,23.7900051 73.92,24.999993 73.92,26.4 C73.92,27.800007 73.6633359,29.0099949 73.15,30.03 C72.6366641,31.0500051 71.9033381,31.8333306 70.95,32.38 C69.9966619,32.9266694 68.8733398,33.2 67.58,33.2 C66.2866602,33.2 65.1600048,32.9266694 64.2,32.38 C63.2399952,31.8333306 62.5033359,31.0500051 61.99,30.03 C61.4766641,29.0099949 61.22,27.800007 61.22,26.4 C61.22,24.999993 61.4766641,23.7900051 61.99,22.77 C62.5033359,21.7499949 63.2399952,20.9666694 64.2,20.42 C65.1600048,19.8733306 66.2866602,19.6 67.58,19.6 Z M67.58,21.86 C66.4599944,21.86 65.5966697,22.2499961 64.99,23.03 C64.3833303,23.8100039 64.08,24.933326 64.08,26.4 C64.08,27.866674 64.3833303,28.9899961 64.99,29.77 C65.5966697,30.5500039 66.4599944,30.94 67.58,30.94 C68.6866722,30.94 69.5433303,30.5500039 70.15,29.77 C70.7566697,28.9899961 71.06,27.866674 71.06,26.4 C71.06,24.933326 70.7566697,23.8100039 70.15,23.03 C69.5433303,22.2499961 68.6866722,21.86 67.58,21.86 Z M81.95,27.94 L79.47,27.94 L79.47,33 L76.75,33 L76.75,19.8 L82.57,19.8 C84.0766742,19.8 85.2533291,20.1566631 86.1,20.87 C86.9466709,21.5833369 87.37,22.5866602 87.37,23.88 C87.37,24.8266714 87.136669,25.6199968 86.67,26.26 C86.203331,26.9000032 85.536671,27.3599986 84.67,27.64 L88.15,33 L85.05,33 L81.95,27.94 Z M79.47,25.84 L82.21,25.84 C83.010004,25.84 83.5999981,25.6833349 83.98,25.37 C84.3600019,25.0566651 84.55,24.5733366 84.55,23.92 C84.55,23.2666634 84.3600019,22.7833349 83.98,22.47 C83.5999981,22.1566651 83.010004,22 82.21,22 L79.47,22 L79.47,25.84 Z M100.58,30.78 L100.58,33 L90.4,33 L90.4,19.8 L100.3,19.8 L100.3,22.02 L93.16,22.02 L93.16,25.3 L98.78,25.3 L98.78,27.42 L93.16,27.42 L93.16,30.78 L100.58,30.78 Z M114.38,19.8 C116.446677,19.8 118.046661,20.3733276 119.18,21.52 C120.313339,22.6666724 120.88,24.2933228 120.88,26.4 C120.88,28.5066772 120.313339,30.1333276 119.18,31.28 C118.046661,32.4266724 116.446677,33 114.38,33 L109.28,33 L109.28,19.8 L114.38,19.8 Z M114.24,30.8 C115.49334,30.8 116.436664,30.4233371 117.07,29.67 C117.703337,28.9166629 118.02,27.8266738 118.02,26.4 C118.02,24.9733262 117.703337,23.8833371 117.07,23.13 C116.436664,22.3766629 115.49334,22 114.24,22 L112.04,22 L112.04,30.8 L114.24,30.8 Z M129.41,19.6 C130.70334,19.6 131.826662,19.8733306 132.78,20.42 C133.733338,20.9666694 134.466664,21.7499949 134.98,22.77 C135.493336,23.7900051 135.75,24.999993 135.75,26.4 C135.75,27.800007 135.493336,29.0099949 134.98,30.03 C134.466664,31.0500051 133.733338,31.8333306 132.78,32.38 C131.826662,32.9266694 130.70334,33.2 129.41,33.2 C128.11666,33.2 126.990005,32.9266694 126.03,32.38 C125.069995,31.8333306 124.333336,31.0500051 123.82,30.03 C123.306664,29.0099949 123.05,27.800007 123.05,26.4 C123.05,24.999993 123.306664,23.7900051 123.82,22.77 C124.333336,21.7499949 125.069995,20.9666694 126.03,20.42 C126.990005,19.8733306 128.11666,19.6 129.41,19.6 Z M129.41,21.86 C128.289994,21.86 127.42667,22.2499961 126.82,23.03 C126.21333,23.8100039 125.91,24.933326 125.91,26.4 C125.91,27.866674 126.21333,28.9899961 126.82,29.77 C127.42667,30.5500039 128.289994,30.94 129.41,30.94 C130.516672,30.94 131.37333,30.5500039 131.98,29.77 C132.58667,28.9899961 132.89,27.866674 132.89,26.4 C132.89,24.933326 132.58667,23.8100039 131.98,23.03 C131.37333,22.2499961 130.516672,21.86 129.41,21.86 Z M144.28,19.6 C145.57334,19.6 146.696662,19.8733306 147.65,20.42 C148.603338,20.9666694 149.336664,21.7499949 149.85,22.77 C150.363336,23.7900051 150.62,24.999993 150.62,26.4 C150.62,27.800007 150.363336,29.0099949 149.85,30.03 C149.336664,31.0500051 148.603338,31.8333306 147.65,32.38 C146.696662,32.9266694 145.57334,33.2 144.28,33.2 C142.98666,33.2 141.860005,32.9266694 140.9,32.38 C139.939995,31.8333306 139.203336,31.0500051 138.69,30.03 C138.176664,29.0099949 137.92,27.800007 137.92,26.4 C137.92,24.999993 138.176664,23.7900051 138.69,22.77 C139.203336,21.7499949 139.939995,20.9666694 140.9,20.42 C141.860005,19.8733306 142.98666,19.6 144.28,19.6 Z M144.28,21.86 C143.159994,21.86 142.29667,22.2499961 141.69,23.03 C141.08333,23.8100039 140.78,24.933326 140.78,26.4 C140.78,27.866674 141.08333,28.9899961 141.69,29.77 C142.29667,30.5500039 143.159994,30.94 144.28,30.94 C145.386672,30.94 146.24333,30.5500039 146.85,29.77 C147.45667,28.9899961 147.76,27.866674 147.76,26.4 C147.76,24.933326 147.45667,23.8100039 146.85,23.03 C146.24333,22.2499961 145.386672,21.86 144.28,21.86 Z M158.65,27.94 L156.17,27.94 L156.17,33 L153.45,33 L153.45,19.8 L159.27,19.8 C160.776674,19.8 161.953329,20.1566631 162.8,20.87 C163.646671,21.5833369 164.07,22.5866602 164.07,23.88 C164.07,24.8266714 163.836669,25.6199968 163.37,26.26 C162.903331,26.9000032 162.236671,27.3599986 161.37,27.64 L164.85,33 L161.75,33 L158.65,27.94 Z M156.17,25.84 L158.91,25.84 C159.710004,25.84 160.299998,25.6833349 160.68,25.37 C161.060002,25.0566651 161.25,24.5733366 161.25,23.92 C161.25,23.2666634 161.060002,22.7833349 160.68,22.47 C160.299998,22.1566651 159.710004,22 158.91,22 L156.17,22 L156.17,25.84 Z" id="Chore-Door"></path>
                <path d="M5.27979693,28.3328504 L6.25582666,29.3202846 L16.3772645,39.4056084 L17.3532942,40.3930425 L15.0001787,43.8880273 L14.7730403,43.6746693 L13.2757328,42.1802128 C13.5028712,41.352916 13.8640117,40.6325357 14.5325968,40.031902 C14.6528186,39.9249854 14.6932093,39.738713 14.6262082,39.5918808 C14.5592071,39.4445735 14.3857647,39.3514373 14.2251522,39.3785228 C14.1448459,39.3913528 14.0778449,39.4184384 14.0246242,39.4716591 C13.3427339,40.0722927 12.9416778,40.8064534 12.6741487,41.5795792 L10.8556162,39.7520181 C11.0694494,39.2583011 11.2167567,38.8448902 11.7380345,38.4576145 C11.8715615,38.3644783 11.9252574,38.1644255 11.8715615,38.0171182 C11.8045604,37.8569809 11.6439479,37.7500643 11.4705055,37.7771498 C11.4035044,37.7771498 11.3369785,37.8170653 11.2699774,37.8569809 C10.7216141,38.2708669 10.4678654,38.7512788 10.2673374,39.1775196 L8.66311323,37.5500114 L10.6151727,35.6022286 C10.7353945,35.4820069 10.7757852,35.281954 10.6954789,35.1355971 C10.6151727,34.9892402 10.4279498,34.9084587 10.2678125,34.9483743 C10.2008115,34.9616794 10.1342856,35.001595 10.0805897,35.0552909 L8.11522507,37.0163788 L6.4839154,35.402651 C6.92536215,35.2025982 7.39341925,34.9488494 7.82108563,34.4023868 C8.00830847,34.1752485 7.7811701,33.7618376 7.48655548,33.788448 C7.37963889,33.8017532 7.28602747,33.855449 7.2190264,33.9352801 C6.81797037,34.4560827 6.40360916,34.6024397 5.9089417,34.8162729 L4.09040919,33.0153222 C4.86591091,32.7482683 5.58771673,32.3348575 6.18930078,31.6543927 C6.3898288,31.4415099 6.21591113,31.0276239 5.9217717,31.0276239 C5.8148551,31.0276239 5.7079385,31.0680146 5.64093743,31.1478456 C5.03935339,31.8283104 4.31707238,32.1880253 3.48834996,32.4151637 L1.97726206,30.9078773 L1.76342887,30.6945193 L5.27979693,28.3328504 Z M7.20524604,26.1850148 C7.2722471,26.1717096 7.3791637,26.1850148 7.41907923,26.2382355 L7.4860803,26.2914562 L7.49938547,26.3047614 L7.9541374,26.758563 L18.930908,37.7110991 L19.3989651,38.1777307 C19.4122702,38.1777307 19.4122702,38.1910358 19.4255754,38.2048162 L19.4659661,38.2447317 L19.4659661,38.2580369 C19.5329672,38.3117328 19.5462724,38.4713949 19.5058817,38.5250908 L18.3431043,40.2728208 C18.3297991,40.2728208 18.3431043,40.2728208 18.3431043,40.2861259 C18.3297991,40.2861259 18.3160187,40.2861259 18.3027136,40.2728208 L18.1430514,40.0993783 C18.1297463,40.0860731 18.1159659,40.0727679 18.1026607,40.0594628 L16.9127978,38.8719758 L6.79136001,28.786652 L5.66802297,27.6661661 C5.66802297,27.6661661 5.6547178,27.6528609 5.6547178,27.6395557 C5.61480227,27.586335 5.57441155,27.5459443 5.52071566,27.5193339 L5.40049389,27.385807 L5.37388354,27.3591966 C5.37388354,27.3725018 5.36057836,27.3725018 5.38718871,27.3458915 L7.15202533,26.19832 C7.16485532,26.1850148 7.17863568,26.1850148 7.20524604,26.1850148 L7.20524604,26.1850148 Z M19.2245722,24.4510652 C19.2378774,24.43776 19.3452692,24.4510652 19.3718795,24.4776756 C19.3989651,24.5042859 19.4251002,24.5308963 19.4521858,24.5442015 L19.8399366,24.9443071 L20.7622705,25.851435 L21.0830203,26.1717096 C21.1101058,26.2515407 21.1633265,26.3318469 21.2436327,26.3717625 L21.2436327,26.4786791 L20.802186,27.1458386 L18.5426819,24.9048668 L19.2245722,24.4510652 Z M14.1980666,22.4633669 L14.4789009,22.4633669 C14.8666517,22.5032824 15.2277923,22.6634197 15.481541,22.9171684 L17.3000735,24.7314243 L17.6745192,25.0916144 L17.6878243,25.1049196 L19.1447412,26.5589853 L20.588828,28.013051 C20.6021332,28.0263562 20.6292187,28.0396614 20.6420487,28.0529666 L20.9765788,28.3865463 L22.7946362,30.2008022 C23.3026088,30.7073493 23.3966954,31.6814783 22.9951642,32.2821119 L19.6127983,37.3114686 L19.465491,37.1779417 L19.4521858,37.1779417 L8.48872038,26.2387107 L8.35519343,26.0918786 L13.4092597,22.7166404 C13.6363981,22.5702835 13.9172324,22.4899772 14.1980666,22.4633669 L14.1980666,22.4633669 Z M38.5512914,1.74530642 C38.6315976,1.74530642 38.6985987,1.77191678 38.7518194,1.82513748 L39.6342377,2.69234988 C39.7411543,2.79926647 39.7411543,2.97223377 39.6342377,3.09245554 L21.4574659,25.5050253 L21.2968535,25.3315828 L20.3607393,24.4106745 L20.200602,24.237232 L38.3502882,1.8246623 C38.4177644,1.77191678 38.4842903,1.74530642 38.5512914,1.74530642 L38.5512914,1.74530642 Z M38.5512914,0.998315803 C38.2837623,0.998315803 38.0295384,1.1052324 37.8290104,1.30528523 L19.6127983,23.7572953 C19.532492,23.7173798 19.4521858,23.7040746 19.3718795,23.6907694 C19.1846567,23.6774642 18.9846039,23.7173798 18.810211,23.8376015 L18.0080989,24.357929 L17.8479616,24.1844865 L16.0294291,22.3835358 C15.6283731,21.9967353 15.0937901,21.756767 14.5454268,21.7030711 C14.0108438,21.6498504 13.4491753,21.769597 12.9811182,22.0765664 L7.78021973,25.558246 C7.65999796,25.4784149 7.51269065,25.424719 7.36585852,25.4114138 C7.13824497,25.3848035 6.92441178,25.4380242 6.72388376,25.558246 L4.97235232,26.7324278 C4.78512948,26.8521744 4.63782217,27.0793128 4.62499218,27.3059759 C4.611687,27.4661132 4.66490771,27.6395557 4.75851913,27.7863878 L0.961316804,30.3343291 C0.78739914,30.4545509 0.760788787,30.7482152 0.908096098,30.9083525 L1.45645944,31.4419851 L3.08776911,33.0694933 C3.10107429,33.0827984 3.10107429,33.0827984 3.11437946,33.0961036 L14.2517625,44.1954719 L14.7863455,44.7419345 C14.946958,44.8892418 15.2410974,44.8621563 15.3613192,44.6887138 L17.9154379,40.9138452 C18.0489648,41.0069814 18.2361877,41.0468969 18.396325,41.0335917 C18.6239385,41.0207617 18.8377717,40.8867596 18.9712987,40.7004871 L20.1345513,38.939452 C20.3483844,38.6058722 20.3350793,38.2057666 20.1345513,37.885492 L23.624309,32.695998 C24.2391982,31.7617845 24.1189764,30.4545509 23.3301695,29.6676448 L21.511637,27.8533889 L21.3381945,27.6937268 L21.8727775,26.8930403 C22.0466952,26.6392916 22.0604755,26.3461025 21.9397786,26.0790486 L40.1564659,3.62656334 C40.5579971,3.22645767 40.5579971,2.55929811 40.1564659,2.15919245 L39.2878279,1.29198005 C39.0863496,1.09145204 38.8188205,0.998315803 38.5512914,0.998315803 L38.5512914,0.998315803 Z" id="Fill-1" stroke="#010165" stroke-width="0.5" transform="translate(20.635004, 22.917900) rotate(-2.000000) translate(-20.635004, -22.917900) "></path>
            </g>
        </g>
    </g>
</svg>